<svg width="261" height="44" viewBox="0 0 261 44" fill="none" xmlns="http://www.w3.org/2000/svg">
<path d="M13.752 21.896C15.84 22.184 17.436 22.868 18.54 23.948C19.644 25.028 20.196 26.444 20.196 28.196C20.196 30.116 19.524 31.736 18.18 33.056C16.86 34.352 14.82 35 12.06 35H1.44V34.712L4.392 34.424V10.736L1.44 10.448V10.16H10.404C13.236 10.16 15.396 10.664 16.884 11.672C18.372 12.68 19.116 14.144 19.116 16.064C19.116 17.6 18.648 18.872 17.712 19.88C16.776 20.888 15.456 21.512 13.752 21.752V21.896ZM7.164 10.592V21.644H11.34C12.948 21.644 14.1 21.176 14.796 20.24C15.516 19.304 15.876 17.912 15.876 16.064C15.876 12.416 14.016 10.592 10.296 10.592H7.164ZM11.196 34.568C14.916 34.568 16.776 32.48 16.776 28.304C16.776 26.12 16.308 24.536 15.372 23.552C14.436 22.568 13.044 22.076 11.196 22.076H7.164V34.568H11.196ZM43.8818 34.712V35H35.0618V34.712L38.0138 34.352L34.6297 25.136H25.9177L22.9297 33.092C22.8337 33.356 22.7857 33.572 22.7857 33.74C22.7857 34.004 22.8577 34.196 23.0017 34.316C23.1697 34.412 23.4577 34.484 23.8657 34.532L26.0617 34.712V35H18.3937V34.712L20.4097 34.532C21.0097 34.484 21.4297 34.364 21.6697 34.172C21.9337 33.98 22.1617 33.62 22.3537 33.092L31.1738 9.584H31.8218L40.8938 34.352L43.8818 34.712ZM34.4138 24.56L30.3817 13.58H30.2377L26.1337 24.56H34.4138ZM55.6611 21.896C57.7491 22.184 59.3451 22.868 60.4491 23.948C61.5531 25.028 62.1051 26.444 62.1051 28.196C62.1051 30.116 61.4331 31.736 60.0891 33.056C58.7691 34.352 56.7291 35 53.9691 35H43.3491V34.712L46.3011 34.424V10.736L43.3491 10.448V10.16H52.3131C55.1451 10.16 57.3051 10.664 58.7931 11.672C60.2811 12.68 61.0251 14.144 61.0251 16.064C61.0251 17.6 60.5571 18.872 59.6211 19.88C58.6851 20.888 57.3651 21.512 55.6611 21.752V21.896ZM49.0731 10.592V21.644H53.2491C54.8571 21.644 56.0091 21.176 56.7051 20.24C57.4251 19.304 57.7851 17.912 57.7851 16.064C57.7851 12.416 55.9251 10.592 52.2051 10.592H49.0731ZM53.1051 34.568C56.8251 34.568 58.6851 32.48 58.6851 28.304C58.6851 26.12 58.2171 24.536 57.2811 23.552C56.3451 22.568 54.9531 22.076 53.1051 22.076H49.0731V34.568H53.1051ZM76.3695 21.896C78.4575 22.184 80.0535 22.868 81.1575 23.948C82.2615 25.028 82.8135 26.444 82.8135 28.196C82.8135 30.116 82.1415 31.736 80.7975 33.056C79.4775 34.352 77.4375 35 74.6775 35H64.0575V34.712L67.0095 34.424V10.736L64.0575 10.448V10.16H73.0215C75.8535 10.16 78.0135 10.664 79.5015 11.672C80.9895 12.68 81.7335 14.144 81.7335 16.064C81.7335 17.6 81.2655 18.872 80.3295 19.88C79.3935 20.888 78.0735 21.512 76.3695 21.752V21.896ZM69.7815 10.592V21.644H73.9575C75.5655 21.644 76.7175 21.176 77.4135 20.24C78.1335 19.304 78.4935 17.912 78.4935 16.064C78.4935 12.416 76.6335 10.592 72.9135 10.592H69.7815ZM73.8135 34.568C77.5335 34.568 79.3935 32.48 79.3935 28.304C79.3935 26.12 78.9255 24.536 77.9895 23.552C77.0535 22.568 75.6615 22.076 73.8135 22.076H69.7815V34.568H73.8135ZM106.499 34.712V35H97.6792V34.712L100.631 34.352L97.2472 25.136H88.5352L85.5472 33.092C85.4512 33.356 85.4032 33.572 85.4032 33.74C85.4032 34.004 85.4752 34.196 85.6192 34.316C85.7872 34.412 86.0752 34.484 86.4832 34.532L88.6792 34.712V35H81.0112V34.712L83.0272 34.532C83.6272 34.484 84.0472 34.364 84.2872 34.172C84.5512 33.98 84.7792 33.62 84.9712 33.092L93.7912 9.584H94.4392L103.511 34.352L106.499 34.712ZM97.0312 24.56L92.9992 13.58H92.8552L88.7512 24.56H97.0312ZM147.644 12.068C149.108 13.1 150.248 14.516 151.064 16.316C151.88 18.116 152.288 20.156 152.288 22.436C152.288 24.716 151.88 26.792 151.064 28.664C150.248 30.536 149.108 32 147.644 33.056C146.708 33.728 145.628 34.22 144.404 34.532C143.204 34.844 141.728 35 139.976 35H130.4V34.712L133.352 34.424V10.736L130.4 10.448V10.16H139.976C143.24 10.16 145.796 10.796 147.644 12.068ZM146.348 32.444C147.116 31.46 147.716 30.068 148.148 28.268C148.604 26.444 148.832 24.44 148.832 22.256C148.832 20.12 148.616 18.236 148.184 16.604C147.776 14.972 147.164 13.676 146.348 12.716C145.676 11.924 144.848 11.372 143.864 11.06C142.88 10.748 141.476 10.592 139.652 10.592H136.124V34.568H139.652C141.572 34.568 143.012 34.412 143.972 34.1C144.932 33.788 145.724 33.236 146.348 32.444ZM165 9.584C167.088 9.584 168.996 10.16 170.724 11.312C172.476 12.464 173.844 14.036 174.828 16.028C175.836 17.996 176.34 20.18 176.34 22.58C176.34 24.98 175.836 27.176 174.828 29.168C173.844 31.136 172.476 32.696 170.724 33.848C168.996 35 167.088 35.576 165 35.576C162.912 35.576 160.992 35 159.24 33.848C157.512 32.696 156.144 31.136 155.136 29.168C154.152 27.176 153.66 24.98 153.66 22.58C153.66 20.18 154.152 17.996 155.136 16.028C156.144 14.036 157.512 12.464 159.24 11.312C160.992 10.16 162.912 9.584 165 9.584ZM157.116 22.58C157.116 26.588 157.8 29.684 159.168 31.868C160.536 34.028 162.48 35.108 165 35.108C167.52 35.108 169.464 34.028 170.832 31.868C172.2 29.684 172.884 26.588 172.884 22.58C172.884 18.572 172.2 15.476 170.832 13.292C169.464 11.108 167.52 10.016 165 10.016C162.48 10.016 160.536 11.108 159.168 13.292C157.8 15.476 157.116 18.572 157.116 22.58ZM194.178 12.068C195.642 13.1 196.782 14.516 197.598 16.316C198.414 18.116 198.822 20.156 198.822 22.436C198.822 24.716 198.414 26.792 197.598 28.664C196.782 30.536 195.642 32 194.178 33.056C193.242 33.728 192.162 34.22 190.938 34.532C189.738 34.844 188.262 35 186.51 35H176.934V34.712L179.886 34.424V10.736L176.934 10.448V10.16H186.51C189.774 10.16 192.33 10.796 194.178 12.068ZM192.882 32.444C193.65 31.46 194.25 30.068 194.682 28.268C195.138 26.444 195.366 24.44 195.366 22.256C195.366 20.12 195.15 18.236 194.718 16.604C194.31 14.972 193.698 13.676 192.882 12.716C192.21 11.924 191.382 11.372 190.398 11.06C189.414 10.748 188.01 10.592 186.186 10.592H182.658V34.568H186.186C188.106 34.568 189.546 34.412 190.506 34.1C191.466 33.788 192.258 33.236 192.882 32.444ZM211.534 9.584C213.622 9.584 215.53 10.16 217.258 11.312C219.01 12.464 220.378 14.036 221.362 16.028C222.37 17.996 222.874 20.18 222.874 22.58C222.874 24.98 222.37 27.176 221.362 29.168C220.378 31.136 219.01 32.696 217.258 33.848C215.53 35 213.622 35.576 211.534 35.576C209.446 35.576 207.526 35 205.774 33.848C204.046 32.696 202.678 31.136 201.67 29.168C200.686 27.176 200.194 24.98 200.194 22.58C200.194 20.18 200.686 17.996 201.67 16.028C202.678 14.036 204.046 12.464 205.774 11.312C207.526 10.16 209.446 9.584 211.534 9.584ZM203.65 22.58C203.65 26.588 204.334 29.684 205.702 31.868C207.07 34.028 209.014 35.108 211.534 35.108C214.054 35.108 215.998 34.028 217.366 31.868C218.734 29.684 219.418 26.588 219.418 22.58C219.418 18.572 218.734 15.476 217.366 13.292C215.998 11.108 214.054 10.016 211.534 10.016C209.014 10.016 207.07 11.108 205.702 13.292C204.334 15.476 203.65 18.572 203.65 22.58Z" fill="white"/>
<path d="M109.684 42.2383L123.316 4.75781H125.201L111.559 42.2383H109.684Z" fill="white"/>
</svg>
